<?xml version="1.0" encoding="UTF-8" standalone="no"?>
<!DOCTYPE svg PUBLIC "-//W3C//DTD SVG 1.1//EN"
 "http://www.w3.org/Graphics/SVG/1.1/DTD/svg11.dtd">
<!-- Generated by graphviz version 14.1.2 (20260124.0452)
 -->
<!-- Pages: 1 -->
<svg width="205pt" height="558pt"
 viewBox="0.00 0.00 205.00 558.00" xmlns="http://www.w3.org/2000/svg" xmlns:xlink="http://www.w3.org/1999/xlink">
<g id="graph0" class="graph" transform="scale(1 1) rotate(0) translate(4 554)">
<polygon fill="white" stroke="none" points="-4,4 -4,-554 201,-554 201,4 -4,4"/>
<text xml:space="preserve" text-anchor="middle" x="98.5" y="-7.2" font-family="Times,serif" font-size="14.00">Tiled Graph</text>
<g id="clust1" class="cluster">
<title>cluster_0</title>
<polygon fill="#cce5ff" stroke="black" points="8,-393.5 8,-542 96,-542 96,-393.5 8,-393.5"/>
<text xml:space="preserve" text-anchor="middle" x="52" y="-524.7" font-family="Times,serif" font-size="14.00">tile 0 (pat 2)</text>
</g>
<g id="clust2" class="cluster">
<title>cluster_1</title>
<polygon fill="#d4edda" stroke="black" points="101,-88.5 101,-309 189,-309 189,-88.5 101,-88.5"/>
<text xml:space="preserve" text-anchor="middle" x="145" y="-291.7" font-family="Times,serif" font-size="14.00">tile 1 (pat 0)</text>
</g>
<g id="clust3" class="cluster">
<title>cluster_2</title>
<polygon fill="#fff3cd" stroke="black" points="9,-232.5 9,-385.5 93,-385.5 93,-232.5 9,-232.5"/>
<text xml:space="preserve" text-anchor="middle" x="51" y="-368.2" font-family="Times,serif" font-size="14.00">tile 2 (pat 1)</text>
</g>
<!-- n1 -->
<g id="node1" class="node">
<title>n1</title>
<ellipse fill="none" stroke="black" cx="52" cy="-491.5" rx="36" ry="18"/>
<text xml:space="preserve" text-anchor="middle" x="52" y="-486.45" font-family="Times,serif" font-size="14.00">1:conv</text>
</g>
<!-- n2 -->
<g id="node2" class="node">
<title>n2</title>
<ellipse fill="none" stroke="black" cx="52" cy="-419.5" rx="27.3" ry="18"/>
<text xml:space="preserve" text-anchor="middle" x="52" y="-414.45" font-family="Times,serif" font-size="14.00">2:bn</text>
</g>
<!-- n1&#45;&gt;n2 -->
<g id="edge1" class="edge">
<title>n1&#45;&gt;n2</title>
<path fill="none" stroke="black" d="M52,-473.2C52,-465.91 52,-457.23 52,-449.04"/>
<polygon fill="black" stroke="black" points="55.5,-449.12 52,-439.12 48.5,-449.12 55.5,-449.12"/>
</g>
<!-- n3 -->
<g id="node6" class="node">
<title>n3</title>
<ellipse fill="none" stroke="black" cx="52" cy="-335" rx="32.41" ry="18"/>
<text xml:space="preserve" text-anchor="middle" x="52" y="-329.95" font-family="Times,serif" font-size="14.00">3:relu</text>
</g>
<!-- n2&#45;&gt;n3 -->
<g id="edge2" class="edge">
<title>n2&#45;&gt;n3</title>
<path fill="none" stroke="black" d="M52,-401C52,-390.5 52,-376.89 52,-364.83"/>
<polygon fill="black" stroke="black" points="55.5,-364.98 52,-354.98 48.5,-364.98 55.5,-364.98"/>
</g>
<!-- n4 -->
<g id="node3" class="node">
<title>n4</title>
<ellipse fill="none" stroke="black" cx="145" cy="-258.5" rx="36" ry="18"/>
<text xml:space="preserve" text-anchor="middle" x="145" y="-253.45" font-family="Times,serif" font-size="14.00">4:conv</text>
</g>
<!-- n5 -->
<g id="node4" class="node">
<title>n5</title>
<ellipse fill="none" stroke="black" cx="145" cy="-186.5" rx="27.3" ry="18"/>
<text xml:space="preserve" text-anchor="middle" x="145" y="-181.45" font-family="Times,serif" font-size="14.00">5:bn</text>
</g>
<!-- n4&#45;&gt;n5 -->
<g id="edge4" class="edge">
<title>n4&#45;&gt;n5</title>
<path fill="none" stroke="black" d="M145,-240.2C145,-232.91 145,-224.23 145,-216.04"/>
<polygon fill="black" stroke="black" points="148.5,-216.12 145,-206.12 141.5,-216.12 148.5,-216.12"/>
</g>
<!-- n6 -->
<g id="node5" class="node">
<title>n6</title>
<ellipse fill="none" stroke="black" cx="145" cy="-114.5" rx="32.41" ry="18"/>
<text xml:space="preserve" text-anchor="middle" x="145" y="-109.45" font-family="Times,serif" font-size="14.00">6:relu</text>
</g>
<!-- n5&#45;&gt;n6 -->
<g id="edge5" class="edge">
<title>n5&#45;&gt;n6</title>
<path fill="none" stroke="black" d="M145,-168.2C145,-160.91 145,-152.23 145,-144.04"/>
<polygon fill="black" stroke="black" points="148.5,-144.12 145,-134.12 141.5,-144.12 148.5,-144.12"/>
</g>
<!-- n7 -->
<g id="node8" class="node">
<title>n7</title>
<ellipse fill="none" stroke="gray" stroke-dasharray="5,2" cx="145" cy="-42.5" rx="45.21" ry="18"/>
<text xml:space="preserve" text-anchor="middle" x="145" y="-37.45" font-family="Times,serif" font-size="14.00" fill="gray">7:custom</text>
</g>
<!-- n6&#45;&gt;n7 -->
<g id="edge6" class="edge">
<title>n6&#45;&gt;n7</title>
<path fill="none" stroke="black" d="M145,-96.2C145,-88.91 145,-80.23 145,-72.04"/>
<polygon fill="black" stroke="black" points="148.5,-72.12 145,-62.12 141.5,-72.12 148.5,-72.12"/>
</g>
<!-- n3&#45;&gt;n4 -->
<g id="edge3" class="edge">
<title>n3&#45;&gt;n4</title>
<path fill="none" stroke="black" d="M75.71,-322.52C82.83,-318.64 90.47,-314 97,-309 106.59,-301.65 116.08,-292.4 124.06,-283.89"/>
<polygon fill="black" stroke="black" points="126.62,-286.28 130.75,-276.53 121.43,-281.58 126.62,-286.28"/>
</g>
<!-- n8 -->
<g id="node7" class="node">
<title>n8</title>
<ellipse fill="none" stroke="black" cx="51" cy="-258.5" rx="34.46" ry="18"/>
<text xml:space="preserve" text-anchor="middle" x="51" y="-253.45" font-family="Times,serif" font-size="14.00">8:pool</text>
</g>
<!-- n3&#45;&gt;n8 -->
<g id="edge7" class="edge">
<title>n3&#45;&gt;n8</title>
<path fill="none" stroke="black" d="M51.77,-316.72C51.66,-308.32 51.52,-297.99 51.39,-288.43"/>
<polygon fill="black" stroke="black" points="54.89,-288.41 51.25,-278.46 47.89,-288.5 54.89,-288.41"/>
</g>
</g>
</svg>
