<?xml version="1.0" encoding="UTF-8" standalone="no"?>
<!DOCTYPE svg PUBLIC "-//W3C//DTD SVG 1.1//EN"
 "http://www.w3.org/Graphics/SVG/1.1/DTD/svg11.dtd">
<!-- Generated by graphviz version 14.1.2 (20260124.0452)
 -->
<!-- Pages: 1 -->
<svg width="182pt" height="505pt"
 viewBox="0.00 0.00 182.00 505.00" xmlns="http://www.w3.org/2000/svg" xmlns:xlink="http://www.w3.org/1999/xlink">
<g id="graph0" class="graph" transform="scale(1 1) rotate(0) translate(4 501)">
<polygon fill="white" stroke="none" points="-4,4 -4,-501 178.46,-501 178.46,4 -4,4"/>
<text xml:space="preserve" text-anchor="middle" x="87.23" y="-7.2" font-family="Times,serif" font-size="14.00">Step 5: best cov=2 tiles=1</text>
<g id="clust1" class="cluster">
<title>cluster_0</title>
<polygon fill="#cce5ff" stroke="black" points="8,-160.5 8,-309 96,-309 96,-160.5 8,-160.5"/>
<text xml:space="preserve" text-anchor="middle" x="52" y="-291.7" font-family="Times,serif" font-size="14.00">tile 0 (pat 2)</text>
</g>
<!-- n4 -->
<g id="node1" class="node">
<title>n4</title>
<ellipse fill="none" stroke="black" cx="52" cy="-258.5" rx="36" ry="18"/>
<text xml:space="preserve" text-anchor="middle" x="52" y="-253.45" font-family="Times,serif" font-size="14.00">4:conv</text>
</g>
<!-- n5 -->
<g id="node2" class="node">
<title>n5</title>
<ellipse fill="none" stroke="black" cx="52" cy="-186.5" rx="27.3" ry="18"/>
<text xml:space="preserve" text-anchor="middle" x="52" y="-181.45" font-family="Times,serif" font-size="14.00">5:bn</text>
</g>
<!-- n4&#45;&gt;n5 -->
<g id="edge4" class="edge">
<title>n4&#45;&gt;n5</title>
<path fill="none" stroke="black" d="M52,-240.2C52,-232.91 52,-224.23 52,-216.04"/>
<polygon fill="black" stroke="black" points="55.5,-216.12 52,-206.12 48.5,-216.12 55.5,-216.12"/>
</g>
<!-- n6 -->
<g id="node6" class="node">
<title>n6</title>
<ellipse fill="none" stroke="gray" stroke-dasharray="5,2" cx="52" cy="-114.5" rx="32.41" ry="18"/>
<text xml:space="preserve" text-anchor="middle" x="52" y="-109.45" font-family="Times,serif" font-size="14.00" fill="gray">6:relu</text>
</g>
<!-- n5&#45;&gt;n6 -->
<g id="edge5" class="edge">
<title>n5&#45;&gt;n6</title>
<path fill="none" stroke="black" d="M52,-168.2C52,-160.91 52,-152.23 52,-144.04"/>
<polygon fill="black" stroke="black" points="55.5,-144.12 52,-134.12 48.5,-144.12 55.5,-144.12"/>
</g>
<!-- n1 -->
<g id="node3" class="node">
<title>n1</title>
<ellipse fill="none" stroke="gray" stroke-dasharray="5,2" cx="96" cy="-479" rx="36" ry="18"/>
<text xml:space="preserve" text-anchor="middle" x="96" y="-473.95" font-family="Times,serif" font-size="14.00" fill="gray">1:conv</text>
</g>
<!-- n2 -->
<g id="node4" class="node">
<title>n2</title>
<ellipse fill="none" stroke="gray" stroke-dasharray="5,2" cx="96" cy="-407" rx="27.3" ry="18"/>
<text xml:space="preserve" text-anchor="middle" x="96" y="-401.95" font-family="Times,serif" font-size="14.00" fill="gray">2:bn</text>
</g>
<!-- n1&#45;&gt;n2 -->
<g id="edge1" class="edge">
<title>n1&#45;&gt;n2</title>
<path fill="none" stroke="black" d="M96,-460.7C96,-453.41 96,-444.73 96,-436.54"/>
<polygon fill="black" stroke="black" points="99.5,-436.62 96,-426.62 92.5,-436.62 99.5,-436.62"/>
</g>
<!-- n3 -->
<g id="node5" class="node">
<title>n3</title>
<ellipse fill="none" stroke="gray" stroke-dasharray="5,2" cx="96" cy="-335" rx="32.41" ry="18"/>
<text xml:space="preserve" text-anchor="middle" x="96" y="-329.95" font-family="Times,serif" font-size="14.00" fill="gray">3:relu</text>
</g>
<!-- n2&#45;&gt;n3 -->
<g id="edge2" class="edge">
<title>n2&#45;&gt;n3</title>
<path fill="none" stroke="black" d="M96,-388.7C96,-381.41 96,-372.73 96,-364.54"/>
<polygon fill="black" stroke="black" points="99.5,-364.62 96,-354.62 92.5,-364.62 99.5,-364.62"/>
</g>
<!-- n3&#45;&gt;n4 -->
<g id="edge3" class="edge">
<title>n3&#45;&gt;n4</title>
<path fill="none" stroke="black" d="M86.23,-317.47C80.8,-308.27 73.92,-296.61 67.74,-286.16"/>
<polygon fill="black" stroke="black" points="70.76,-284.38 62.66,-277.55 64.73,-287.94 70.76,-284.38"/>
</g>
<!-- n8 -->
<g id="node8" class="node">
<title>n8</title>
<ellipse fill="none" stroke="gray" stroke-dasharray="5,2" cx="140" cy="-258.5" rx="34.46" ry="18"/>
<text xml:space="preserve" text-anchor="middle" x="140" y="-253.45" font-family="Times,serif" font-size="14.00" fill="gray">8:pool</text>
</g>
<!-- n3&#45;&gt;n8 -->
<g id="edge7" class="edge">
<title>n3&#45;&gt;n8</title>
<path fill="none" stroke="black" d="M105.77,-317.47C111.29,-308.11 118.33,-296.2 124.58,-285.61"/>
<polygon fill="black" stroke="black" points="127.42,-287.68 129.49,-277.29 121.39,-284.12 127.42,-287.68"/>
</g>
<!-- n7 -->
<g id="node7" class="node">
<title>n7</title>
<ellipse fill="none" stroke="gray" stroke-dasharray="5,2" cx="52" cy="-42.5" rx="45.21" ry="18"/>
<text xml:space="preserve" text-anchor="middle" x="52" y="-37.45" font-family="Times,serif" font-size="14.00" fill="gray">7:custom</text>
</g>
<!-- n6&#45;&gt;n7 -->
<g id="edge6" class="edge">
<title>n6&#45;&gt;n7</title>
<path fill="none" stroke="black" d="M52,-96.2C52,-88.91 52,-80.23 52,-72.04"/>
<polygon fill="black" stroke="black" points="55.5,-72.12 52,-62.12 48.5,-72.12 55.5,-72.12"/>
</g>
</g>
</svg>
